<?xml version="1.0" encoding="utf-8"?>
<!-- Generator: Adobe Illustrator 23.0.2, SVG Export Plug-In . SVG Version: 6.00 Build 0)  -->
<svg version="1.1" id="Layer_1" xmlns="http://www.w3.org/2000/svg" xmlns:xlink="http://www.w3.org/1999/xlink" x="0px" y="0px"
	 viewBox="0 0 283.46 198.21" style="enable-background:new 0 0 283.46 198.21;" xml:space="preserve">
<style type="text/css">
	.st0{fill:#727D83;}
</style>
<g>
	<path class="st0" d="M250.28,7.45c0,4.11-3.33,7.44-7.45,7.44c-4.12,0-7.44-3.33-7.44-7.44c0-4.11,3.33-7.45,7.44-7.45
		C246.95,0,250.28,3.33,250.28,7.45"/>
	<path class="st0" d="M166.99,33.7c0,8.48,6.89,15.38,15.37,15.38h11.92v-6.92h-11.92c-4.66,0-8.44-3.79-8.44-8.45
		c0-4.65,3.78-8.44,8.44-8.44h11.92v-6.93h-11.92C173.88,18.32,166.99,25.22,166.99,33.7"/>
	<path class="st0" d="M196.01,33.7c0,8.48,6.9,15.38,15.39,15.38h11.91v-6.92h-11.91c-4.66,0-8.46-3.79-8.46-8.45
		c0-4.65,3.8-8.44,8.46-8.44h11.91v-6.93h-11.91C202.91,18.32,196.01,25.22,196.01,33.7"/>
	<path class="st0" d="M274.1,7.45c0,4.11-3.33,7.44-7.44,7.44c-4.11,0-7.45-3.33-7.45-7.44c0-4.11,3.34-7.45,7.45-7.45
		C270.78,0,274.1,3.33,274.1,7.45"/>
	<path class="st0" d="M266.66,18.33c-4.8,0-9.09,2.21-11.92,5.67c-2.82-3.45-7.12-5.67-11.91-5.67c-8.47,0-15.37,6.9-15.37,15.37
		v15.38h6.92V33.7c0-4.65,3.79-8.45,8.45-8.45c4.66,0,8.45,3.79,8.45,8.45v15.38h6.93V33.7c0-4.65,3.79-8.45,8.45-8.45
		c4.66,0,8.45,3.79,8.45,8.45v15.38h6.93V33.7C282.04,25.22,275.14,18.33,266.66,18.33"/>
	<path class="st0" d="M28.42,88.19c4.09,6.71,15.04,13.84,21.39,15.84l4.53-5.53c-7.55-2.49-22.33-11.35-22.33-20.55v-8.99h-7.17
		v8.99c0,9.48-14.97,18.06-22.58,20.55l4.71,5.6C14.09,101.68,24.22,94.34,28.42,88.19"/>
	<polygon class="st0" points="32.02,100.5 24.79,100.5 24.79,116.97 0,116.97 0,123.61 55.35,123.61 56.6,123.61 56.6,122.23 
		56.6,116.97 32.02,116.97 	"/>
	<polygon class="st0" points="161.49,66.12 154.32,66.12 154.32,131.98 160.23,131.98 161.49,131.98 161.49,130.59 161.49,96.35 
		169.59,96.35 169.59,89.78 161.49,89.78 	"/>
	<path class="st0" d="M134,89.36V76.01h13.15v-6.57h-33.14v6.57h12.77v13.08c0,6.64-8.31,18.05-16.17,23.38l5.09,5.05
		c4.67-3.12,11.57-11.55,14.9-17.02c3.02,4.77,9.63,12.73,14.28,15.84l4.77-5.12C142.56,106.38,134,96.35,134,89.36"/>
	<path class="st0" d="M176.57,86.88l4.01,5.4c6.6-2,15.79-6.5,20.13-12.52c4.52,5.74,13.34,10.52,20.25,12.52l3.9-5.4
		c-10.76-3.12-17.05-7.68-19.5-12.59l-0.31-0.69h16.16v-6.23h-40.94v6.23h16.28l-0.3,0.62C193.42,79.47,187.57,83.63,176.57,86.88"
		/>
	<path class="st0" d="M172.17,101.96h24.9v5.81c-11.5,0.76-17.73,5.33-17.73,12.73c0,8.3,7.61,12.8,21.26,12.8
		c13.64,0,21.19-4.77,21.19-12.8c0-7.47-6.16-11.97-17.68-12.73v-5.81h23.47h1.26v-1.38v-5.18h-56.67V101.96z M214.62,120.5
		c0,3.8-4.22,6.36-14.02,6.36c-9.83,0-14.03-2.49-14.03-6.36c0-3.67,4.28-6.58,14.03-6.58C210.4,113.92,214.62,116.83,214.62,120.5"
		/>
	<polygon class="st0" points="99.22,131.98 105.21,131.98 106.47,131.98 106.47,130.6 106.47,66.05 99.22,66.05 	"/>
	<path class="st0" d="M83.51,86.32H67.28v-17.3h-7.11v43.79c0,2.28,1.58,4.15,3.84,4.15h22.83h3.84v-4.15V69.03h-7.17V86.32z
		 M83.51,109.71v0.69h-0.63H67.91c-0.44,0-0.63-0.21-0.63-0.69V92.96h16.23V109.71z"/>
	<polygon class="st0" points="275,103.68 280.79,103.68 282.04,103.68 282.04,102.3 282.04,66.12 275,66.12 	"/>
	<path class="st0" d="M250.04,89.57c2.83,4.22,10.12,9.41,15.66,11.42l4.02-5.19c-7.23-3.53-16.35-9.27-16.35-16.4V67.02H246v12.52
		c0,7.95-7.86,14.88-15.59,18.96l4.71,4.98C241.73,99.74,247.07,93.93,250.04,89.57"/>
	<path class="st0" d="M240.79,128.04c0,2.42,1.64,4.15,3.84,4.15h33.08h3.84v-4.15v-20.48h-40.76V128.04z M247.71,113.92h26.91
		v11.21v0.69h-0.63h-25.66c-0.44,0-0.63-0.21-0.63-0.69V113.92z"/>
	<path class="st0" d="M75.43,177.65c-3.74,0-7.88,0.89-7.88,4.11c0,3.25,4.14,4,7.88,4c3.67,0,7.81-0.74,7.81-4
		C83.25,178.53,79.1,177.65,75.43,177.65"/>
	<path class="st0" d="M247.26,168.48c0-2.33-2.14-3.96-5.1-3.96c-2.85,0-5.07,1.59-5.07,3.96c0,2.37,2.22,3.95,5.07,3.95
		C245.12,172.43,247.26,170.8,247.26,168.48"/>
	<path class="st0" d="M37.16,177.62c-4.81,0-8.07,1.36-8.07,4.03c0,2.7,3.26,4,8.07,4c4.88,0,8.06-1.3,8.06-4
		C45.22,178.98,42.04,177.62,37.16,177.62"/>
	<path class="st0" d="M173.14,166.33c3.7,0,5.77-2.18,5.77-4.59c0-2.78-1.96-4.85-5.77-4.85c-3.63,0-5.85,2.26-5.85,4.85
		C167.3,164.3,169.33,166.33,173.14,166.33"/>
	<path class="st0" d="M207.15,163.3c2.77,0,5.32-1,5.32-3.4c0-2.48-2.55-3.4-5.32-3.4c-2.63,0-5.29,0.99-5.29,3.4
		C201.85,162.3,204.52,163.3,207.15,163.3"/>
	<path class="st0" d="M280.78,143.74H2.69c-1.48,0-2.69,1.2-2.69,2.69v49.1c0,1.48,1.2,2.69,2.69,2.69h278.09
		c1.48,0,2.69-1.2,2.69-2.69v-49.1C283.46,144.94,282.26,143.74,280.78,143.74 M231.2,156.67h8.73v-3.92h4.26v3.92h8.92v3.59H231.2
		V156.67z M221.54,153.23h4.21v27.01v0v0.74h-0.74h-3.47v-3.41h-10.25v-3.51h10.25V153.23z M207.15,153.23c4.61,0,9.4,2.11,9.4,6.66
		c0,4.58-4.78,6.66-9.4,6.66c-4.59,0-9.37-2.07-9.37-6.66C197.78,155.34,202.56,153.23,207.15,153.23 M173.14,153.56
		c5.88,0,9.8,3.44,9.8,8.18c0,4.81-4.18,7.96-9.8,7.96c-6.26,0-9.99-3.07-9.99-7.96C163.15,157.01,167.18,153.56,173.14,153.56
		 M83.13,153.23h4.15v19.76v0.74h-0.75h-3.4v-9.51h-7.7v-3.56h7.7V153.23z M24.9,153.56h22.28c1.22,0,2.25,0.93,2.25,2.22v3.33
		c0,1.89-0.49,5.07-1.89,7.88l-4.04-0.04c0.6-1.78,1.75-5.84,1.75-7.66v-1.96c0-0.25-0.11-0.37-0.37-0.37H24.9V153.56z
		 M37.15,189.09c-6.85,0-12.47-2.29-12.47-7.44c0-5.14,5.62-7.48,12.47-7.48c6.88,0,12.47,2.34,12.47,7.48
		C49.63,186.8,44.04,189.09,37.15,189.09 M53.81,171.59v0.74h-0.74H20.46v-3.48h12.66v-7.59h4.18v7.59h16.5V171.59z M56.82,170.58
		c5.33-2.25,9.21-6.11,9.21-9.36v-3.51h-6.89v-3.4h18.24v3.4h-7.03v3.51c0,3.89,5.33,6.92,8.73,8.4l-2.62,2.78
		c-2.85-1.19-6.33-3.55-8.18-5.89c-2.07,2.59-5.81,5.59-8.85,6.77L56.82,170.58z M75.39,189.2c-5.25,0-11.95-1.22-11.95-7.44
		c0-6.18,7.47-7.54,11.95-7.54c5.22,0,11.92,1.29,11.92,7.54C87.31,188.01,80.61,189.2,75.39,189.2 M122.05,187.72v0.74h-0.74h-3.44
		v-20.46h-7.41c0,8.77-8.84,13.44-16.09,15.1l-2.18-3c5.52-1.33,13.99-4.99,13.99-11.54l0.04-9.59c0-0.26-0.15-0.37-0.41-0.37H93.11
		v-3.55h15.17c1.3,0,2.18,1.07,2.18,2.26v7.14h7.41v-11.21h4.19V187.72z M143.25,179.35c-4.15,0.59-7.44,0.97-13.88,0.97
		c-1.34,0-2.26-1-2.26-2.23v-12.73h9.44c0.26,0,0.38-0.15,0.38-0.4v-6.89h-9.81v-3.36h14.03v11.73v2.21h-2.25h-7.59v7.85
		c0,0.25,0.11,0.37,0.37,0.37c3.29,0.04,6.73-0.15,11.58-0.89V179.35z M157.39,187.72v0.74h-0.74h-3.45v-19.91h-4.03v18.32v0.75
		h-0.74h-3.44V153.2h4.18v11.8h4.03v-11.8h4.19V187.72z M185.69,174.25v0.47l-0.52,0.19c-2.77,0.89-5.77,1.07-10.4,1.18v12.18h-4.22
		V176.1h-8.74v-3.59h11.77c4.4,0,8.87-0.4,12.1-1.14V174.25z M191.42,187.72v0.74h-0.74h-3.51v-35.19h4.25V187.72z M196.27,168.11
		h10.84c4.59,0,9.99-0.52,12.85-1.22v3.03v0.45l-0.52,0.22c-2.67,1-7.92,1.15-11.84,1.15v5.03v0.74h-0.74h-3.55v-5.77h-7.04V168.11z
		 M226.28,187.76v0.74h-0.74h-21.73c-1.18,0-2.25-0.96-2.25-2.26v-7.18h4.21v5.48c0,0.26,0.19,0.37,0.34,0.37h20.17V187.76z
		 M255,181.17v0.42l-0.53,0.21c-2.69,1-7.95,1.19-13.31,1.19h-10.47v-3.49h9.5v-3.73c-4.32-0.71-7.42-3.44-7.42-7.29
		c0-4.33,4.1-7.44,9.39-7.44c5.21,0,9.47,3.11,9.47,7.44c0,3.7-3.11,6.55-7.26,7.25v3.77c3.67-0.11,7.67-0.48,10.62-1.22V181.17z
		 M260.77,187.72v0.74h-0.74h-3.48V153.2h4.22V187.72z"/>
</g>
</svg>
